# xmcd CD database file
#
# Track frame offsets:
#	150
#	33675
#	66150
#	95850
#	115875
#	149025
#	183825
#	212100
#
# Disc length: 3282 seconds
#
# Revision: 4
# Processed by: cddbd v1.5.2PL0 Copyright (c) Steve Scherf et al.
# Submitted via: Feurio! 1.68 - http://www.feurio.com
#
DISCID=7f0cd008
DTITLE=no-copies - PROMO #2
DYEAR=2006
DGENRE=House
TTITLE0=No
TTITLE1=Cafe "Lost Dreams"
TTITLE2=Midnight dub
TTITLE3=Tribal DUB
TTITLE4=Easy beauty
TTITLE5=You tell me
TTITLE6=Feel no better
TTITLE7=Crystal eyes
EXTD=produced for MOTOR FM 103.6
EXTT0=
EXTT1=
EXTT2=
EXTT3=
EXTT4=
EXTT5=
EXTT6=
EXTT7=
PLAYORDER=
